<svg width="254" height="223" viewBox="0 0 254 223" fill="none" xmlns="http://www.w3.org/2000/svg">
<path d="M129.603 202C182.519 202 225.416 159.16 225.416 106.315C225.416 53.4703 182.519 10.6309 129.603 10.6309C76.6873 10.6309 33.7906 53.4703 33.7906 106.315C33.7906 159.16 76.6873 202 129.603 202Z" fill="url(#paint0_linear_151_1638)"/>
<path fill-rule="evenodd" clip-rule="evenodd" d="M2.28816 59.8245C19.0792 49.7552 38.1009 47.8382 56.313 48.4408C58.9153 48.5269 60.955 50.7035 60.8687 53.3023C60.7825 55.9012 58.603 57.9381 56.0007 57.852C38.5221 57.2736 21.6539 59.1948 7.14221 67.8973C4.91001 69.2359 2.01383 68.5139 0.673425 66.2847C-0.666983 64.0555 0.0559595 61.1631 2.28816 59.8245Z" fill="url(#paint1_linear_151_1638)"/>
<g filter="url(#filter0_f_151_1638)">
<ellipse cx="107.497" cy="92.3819" rx="57.7703" ry="9.85895" fill="#B5D4FD"/>
</g>
<g filter="url(#filter1_f_151_1638)">
<ellipse cx="205.487" cy="91.6514" rx="26.3257" ry="9.85895" fill="#FFCA2A" fill-opacity="0.6"/>
</g>
<g filter="url(#filter2_f_151_1638)">
<ellipse cx="142.598" cy="190.972" rx="57.7703" ry="9.85895" fill="#B5D4FD"/>
</g>
<path fill-rule="evenodd" clip-rule="evenodd" d="M252.327 136.328C253.667 138.557 252.944 141.449 250.712 142.788C233.923 152.856 214.891 154.774 196.68 154.171C194.078 154.085 192.038 151.909 192.125 149.31C192.211 146.711 194.39 144.674 196.992 144.76C214.471 145.338 231.348 143.416 245.858 134.715C248.09 133.376 250.986 134.098 252.327 136.328Z" fill="url(#paint2_linear_151_1638)"/>
<path d="M122.867 190.359H170.752C186.809 190.359 199.827 172.993 199.827 151.564C199.827 130.135 186.809 112.762 170.752 112.762H122.867C132.801 112.762 141.57 119.407 146.81 129.577C150.181 136.424 151.935 143.953 151.935 151.584C151.935 159.215 150.181 166.744 146.81 173.591C141.57 183.734 132.801 190.359 122.867 190.359Z" fill="url(#paint3_linear_151_1638)"/>
<path d="M157.296 127.008C151.45 115.688 141.664 108.276 130.585 108.276H119.883C101.968 108.276 87.4406 127.66 87.4406 151.564C87.4406 175.468 101.968 194.846 119.883 194.853H130.618C141.697 194.853 151.497 187.454 157.329 176.121C161.089 168.482 163.044 160.083 163.044 151.571C163.044 143.059 161.089 134.66 157.329 127.021L157.296 127.008Z" fill="url(#paint4_linear_151_1638)"/>
<path d="M146.473 127.008C140.64 115.708 130.875 108.303 119.816 108.276C101.914 108.276 87.4071 127.674 87.4071 151.564C87.4071 175.455 101.914 194.826 119.816 194.853C130.875 194.853 140.64 187.454 146.473 176.121C150.237 168.483 152.194 160.084 152.194 151.571C152.194 143.058 150.237 134.659 146.473 127.021V127.008Z" fill="url(#paint5_linear_151_1638)"/>
<path d="M124.088 143.583C122.474 146.419 119.771 148.275 116.71 148.275H113.754C108.806 148.275 104.793 143.419 104.793 137.431C104.793 131.442 108.806 126.588 113.754 126.586H116.72C119.78 126.586 122.487 128.439 124.098 131.279C125.136 133.193 125.676 135.297 125.676 137.429C125.676 139.561 125.136 141.665 124.098 143.579L124.088 143.583Z" fill="url(#paint6_linear_151_1638)"/>
<path d="M124.088 172.78C122.474 175.616 119.771 177.473 116.71 177.473H113.754C108.806 177.473 104.793 172.616 104.793 166.628C104.793 160.639 108.806 155.785 113.754 155.783H116.72C119.78 155.783 122.487 157.637 124.098 160.476C125.136 162.39 125.676 164.494 125.676 166.626C125.676 168.759 125.136 170.863 124.098 172.777L124.088 172.78Z" fill="url(#paint7_linear_151_1638)"/>
<path d="M120.786 143.583C119.207 146.413 116.562 148.269 113.568 148.275C108.721 148.275 104.793 143.416 104.793 137.431C104.793 131.446 108.721 126.593 113.568 126.586C116.562 126.586 119.207 128.439 120.786 131.279C121.805 133.192 122.335 135.296 122.335 137.429C122.335 139.562 121.805 141.666 120.786 143.579V143.583Z" fill="#89BAFB"/>
<path d="M120.786 172.78C119.207 175.611 116.562 177.466 113.568 177.473C108.721 177.473 104.793 172.613 104.793 166.628C104.793 160.643 108.721 155.79 113.568 155.783C116.562 155.783 119.207 157.637 120.786 160.476C121.805 162.389 122.335 164.494 122.335 166.626C122.335 168.759 121.805 170.863 120.786 172.777V172.78Z" fill="#89BAFB"/>
<path d="M130.133 95.1908H82.2478C66.1916 95.1908 53.1662 77.8243 53.1662 56.3954C53.1662 34.9664 66.1916 17.5933 82.2478 17.5933H130.133C120.199 17.5933 111.43 24.2385 106.191 34.4082C102.754 41.2353 100.995 48.7814 101.059 56.4223C100.995 64.061 102.754 71.605 106.191 78.4297C111.43 88.5455 120.199 95.1908 130.133 95.1908Z" fill="url(#paint8_linear_151_1638)"/>
<path d="M95.698 31.8656C101.551 20.5458 111.337 13.1338 122.416 13.1338H133.151C151.066 13.1338 165.593 32.518 165.593 56.4221C165.593 80.3262 151.066 99.7037 133.151 99.7105H122.416C111.337 99.7105 101.537 92.3119 95.698 80.9786C91.8716 73.3609 89.9118 64.9443 89.9801 56.4221C89.9118 47.8999 91.8716 39.4834 95.698 31.8656Z" fill="url(#paint9_linear_151_1638)"/>
<path d="M106.521 31.8656C112.36 20.566 122.119 13.1607 133.184 13.1338C151.086 13.1338 165.593 32.5315 165.593 56.4221C165.593 80.3128 151.086 99.6836 133.184 99.7037C122.119 99.7037 112.36 92.3052 106.521 80.9786C102.694 73.3609 100.734 64.9443 100.803 56.4221C100.734 47.8999 102.694 39.4834 106.521 31.8656Z" fill="url(#paint10_linear_151_1638)"/>
<path d="M135.973 49.0101C139.473 49.0101 142.31 45.0773 142.31 40.226C142.31 35.3747 139.473 31.4419 135.973 31.4419C132.472 31.4419 129.635 35.3747 129.635 40.226C129.635 45.0773 132.472 49.0101 135.973 49.0101Z" fill="url(#paint11_linear_151_1638)"/>
<path d="M136.118 50.6731C140.5 50.6731 144.053 46.0045 144.053 40.2455C144.053 34.4865 140.5 29.8179 136.118 29.8179C131.735 29.8179 128.182 34.4865 128.182 40.2455C128.182 46.0045 131.735 50.6731 136.118 50.6731Z" fill="#89BAFB"/>
<path d="M136.118 84.0412C140.5 84.0412 144.053 79.3726 144.053 73.6136C144.053 67.8546 140.5 63.186 136.118 63.186C131.735 63.186 128.182 67.8546 128.182 73.6136C128.182 79.3726 131.735 84.0412 136.118 84.0412Z" fill="#89BAFB"/>
<path d="M41.1031 116.532C41.6211 114.389 44.6695 114.389 45.1875 116.532L46.2564 120.954C46.4416 121.72 47.04 122.318 47.8062 122.503L52.2231 123.568C54.368 124.085 54.368 127.135 52.2231 127.653L47.8062 128.717C47.04 128.902 46.4416 129.5 46.2564 130.266L45.1875 134.688C44.6695 136.831 41.6211 136.831 41.1031 134.688L40.0342 130.266C39.849 129.5 39.2506 128.902 38.4844 128.717L34.0675 127.653C31.9227 127.135 31.9227 124.085 34.0675 123.568L38.4844 122.503C39.2506 122.318 39.849 121.72 40.0342 120.954L41.1031 116.532Z" fill="url(#paint12_linear_151_1638)"/>
<path d="M135.973 49.0101C139.473 49.0101 142.31 45.0773 142.31 40.226C142.31 35.3747 139.473 31.4419 135.973 31.4419C132.472 31.4419 129.635 35.3747 129.635 40.226C129.635 45.0773 132.472 49.0101 135.973 49.0101Z" fill="url(#paint13_linear_151_1638)"/>
<path d="M135.973 82.3783C139.473 82.3783 142.31 78.4455 142.31 73.5942C142.31 68.7428 139.473 64.8101 135.973 64.8101C132.472 64.8101 129.635 68.7428 129.635 73.5942C129.635 78.4455 132.472 82.3783 135.973 82.3783Z" fill="url(#paint14_linear_151_1638)"/>
<path d="M186.626 8.44881C187.144 6.30561 190.192 6.30561 190.71 8.44881L191.779 12.8708C191.964 13.637 192.562 14.235 193.329 14.4197L197.746 15.4845C199.89 16.0016 199.89 19.0525 197.746 19.5695L193.329 20.6343C192.562 20.819 191.964 21.4171 191.779 22.1832L190.71 26.6052C190.192 28.7484 187.144 28.7484 186.626 26.6052L185.557 22.1832C185.371 21.4171 184.773 20.819 184.007 20.6343L179.59 19.5695C177.445 19.0525 177.445 16.0016 179.59 15.4845L184.007 14.4197C184.773 14.235 185.371 13.637 185.557 12.8708L186.626 8.44881Z" fill="url(#paint15_linear_151_1638)"/>
<path d="M43.1459 78.7246C45.2493 78.7247 46.9516 80.4271 46.9516 82.5234C46.9515 84.6197 45.2492 86.3221 43.1459 86.3223C41.0425 86.3223 39.3404 84.6197 39.3403 82.5234C39.3403 80.427 41.0424 78.7246 43.1459 78.7246Z" stroke="url(#paint16_linear_151_1638)" stroke-width="2.6263"/>
<path d="M209.316 172.113C211.419 172.113 213.121 173.815 213.121 175.912C213.121 178.008 211.419 179.71 209.316 179.71C207.212 179.71 205.51 178.008 205.51 175.912C205.51 173.815 207.212 172.113 209.316 172.113Z" stroke="url(#paint17_linear_151_1638)" stroke-width="2.6263"/>
<path d="M205.62 110.279C205.287 108.973 206.494 107.798 207.792 108.162L214.143 109.944C215.441 110.309 215.858 111.94 214.893 112.881L210.172 117.482C209.206 118.423 207.583 117.967 207.25 116.662L205.62 110.279Z" fill="url(#paint18_linear_151_1638)"/>
<path d="M73.3355 180.518C74.6429 180.187 75.8189 181.393 75.4523 182.69L73.6595 189.029C73.2929 190.326 71.6588 190.739 70.718 189.774L66.1165 185.054C65.1757 184.089 65.6339 182.468 66.9412 182.137L73.3355 180.518Z" fill="url(#paint19_linear_151_1638)"/>
<path d="M231.553 68.7501C230.853 74.025 228.824 79.0364 225.657 83.3156C222.49 87.5949 218.288 91.0023 213.444 93.2194C208.601 95.4365 203.273 96.3909 197.96 95.9932C192.646 95.5956 187.521 93.859 183.062 90.9458L170.939 95.0688C170.571 95.1917 170.175 95.2061 169.799 95.1104C169.423 95.0147 169.083 94.813 168.819 94.5293C168.554 94.2455 168.378 93.8918 168.309 93.5104C168.241 93.129 168.284 92.736 168.433 92.3784L173.309 80.7559C170.73 76.4448 169.222 71.5798 168.911 66.5675C168.599 61.5552 169.494 56.5413 171.519 51.9449C173.545 47.3484 176.643 43.3029 180.554 40.1465C184.465 36.9901 189.076 34.8145 194.001 33.8015C198.927 32.7885 204.023 32.9677 208.865 34.3239C213.707 35.6801 218.153 38.174 221.832 41.5972C225.512 45.0204 228.317 49.2733 230.014 54.0006C231.711 58.728 232.251 63.7923 231.587 68.7703L231.553 68.7501Z" fill="url(#paint20_linear_151_1638)"/>
<path d="M102.394 1.93408C104.498 1.93422 106.2 3.63657 106.2 5.73291C106.2 7.82913 104.498 9.5316 102.394 9.53174C100.291 9.53174 98.5888 7.82921 98.5887 5.73291C98.5887 3.63649 100.291 1.93408 102.394 1.93408Z" stroke="url(#paint21_linear_151_1638)" stroke-width="2.6263"/>
<path d="M200.064 88.2643C203.58 88.2643 206.035 85.8645 206.035 82.516C206.035 79.1117 203.58 76.7119 200.064 76.7119C196.603 76.7119 194.092 79.1117 194.092 82.516C194.092 85.8645 196.603 88.2643 200.064 88.2643ZM205.533 47.3006H194.594V58.2392L197.385 73.3634H202.687L205.533 58.2392V47.3006Z" fill="white"/>
<rect x="78.0512" y="130.679" width="41.7662" height="15.0157" rx="7.50787" fill="url(#paint22_linear_151_1638)"/>
<rect x="78.0627" y="159.955" width="41.7662" height="15.0157" rx="7.50787" fill="url(#paint23_linear_151_1638)"/>
<defs>
<filter id="filter0_f_151_1638" x="27.8412" y="60.6371" width="159.312" height="63.4894" filterUnits="userSpaceOnUse" color-interpolation-filters="sRGB">
<feFlood flood-opacity="0" result="BackgroundImageFix"/>
<feBlend mode="normal" in="SourceGraphic" in2="BackgroundImageFix" result="shape"/>
<feGaussianBlur stdDeviation="10.9429" result="effect1_foregroundBlur_151_1638"/>
</filter>
<filter id="filter1_f_151_1638" x="157.276" y="59.9067" width="96.423" height="63.4894" filterUnits="userSpaceOnUse" color-interpolation-filters="sRGB">
<feFlood flood-opacity="0" result="BackgroundImageFix"/>
<feBlend mode="normal" in="SourceGraphic" in2="BackgroundImageFix" result="shape"/>
<feGaussianBlur stdDeviation="10.9429" result="effect1_foregroundBlur_151_1638"/>
</filter>
<filter id="filter2_f_151_1638" x="62.9419" y="159.227" width="159.312" height="63.4894" filterUnits="userSpaceOnUse" color-interpolation-filters="sRGB">
<feFlood flood-opacity="0" result="BackgroundImageFix"/>
<feBlend mode="normal" in="SourceGraphic" in2="BackgroundImageFix" result="shape"/>
<feGaussianBlur stdDeviation="10.9429" result="effect1_foregroundBlur_151_1638"/>
</filter>
<linearGradient id="paint0_linear_151_1638" x1="128.864" y1="-20.5264" x2="130.822" y2="315.503" gradientUnits="userSpaceOnUse">
<stop stop-color="white" stop-opacity="0"/>
<stop offset="1" stop-color="#B5D4FD"/>
</linearGradient>
<linearGradient id="paint1_linear_151_1638" x1="53.8385" y1="68.705" x2="13.9023" y2="29.4031" gradientUnits="userSpaceOnUse">
<stop stop-color="#4D97F9"/>
<stop offset="1" stop-color="#F7F7FF"/>
</linearGradient>
<linearGradient id="paint2_linear_151_1638" x1="196.712" y1="161.03" x2="235.263" y2="187.02" gradientUnits="userSpaceOnUse">
<stop stop-color="#4D97F9"/>
<stop offset="1" stop-color="#F7F7FF"/>
</linearGradient>
<linearGradient id="paint3_linear_151_1638" x1="188.526" y1="166.779" x2="139.631" y2="74.3465" gradientUnits="userSpaceOnUse">
<stop stop-color="#4D97F9"/>
<stop offset="1" stop-color="#F7F7FF"/>
</linearGradient>
<linearGradient id="paint4_linear_151_1638" x1="151.942" y1="168.544" x2="93.6772" y2="71.5628" gradientUnits="userSpaceOnUse">
<stop stop-color="#4D97F9"/>
<stop offset="1" stop-color="#F7F7FF"/>
</linearGradient>
<linearGradient id="paint5_linear_151_1638" x1="93.0695" y1="157.177" x2="152.373" y2="156.759" gradientUnits="userSpaceOnUse">
<stop stop-color="#B5D4FD"/>
<stop offset="1" stop-color="#CEE2FD"/>
</linearGradient>
<linearGradient id="paint6_linear_151_1638" x1="129.017" y1="143.27" x2="110.476" y2="117.347" gradientUnits="userSpaceOnUse">
<stop stop-color="#4D97F9"/>
<stop offset="1" stop-color="#F7F7FF"/>
</linearGradient>
<linearGradient id="paint7_linear_151_1638" x1="129.017" y1="172.467" x2="110.476" y2="146.544" gradientUnits="userSpaceOnUse">
<stop stop-color="#4D97F9"/>
<stop offset="1" stop-color="#F7F7FF"/>
</linearGradient>
<linearGradient id="paint8_linear_151_1638" x1="73.4684" y1="98.7368" x2="69.8463" y2="-20.7717" gradientUnits="userSpaceOnUse">
<stop stop-color="#4D97F9"/>
<stop offset="1" stop-color="#F7F7FF"/>
</linearGradient>
<linearGradient id="paint9_linear_151_1638" x1="135.283" y1="80.8012" x2="119.036" y2="-25.9357" gradientUnits="userSpaceOnUse">
<stop stop-color="#4D97F9"/>
<stop offset="1" stop-color="#F7F7FF"/>
</linearGradient>
<linearGradient id="paint10_linear_151_1638" x1="106.464" y1="62.0315" x2="165.772" y2="61.6133" gradientUnits="userSpaceOnUse">
<stop stop-color="#BAD7FD"/>
<stop offset="1" stop-color="#CEE2FD"/>
</linearGradient>
<linearGradient id="paint11_linear_151_1638" x1="123.585" y1="49.3365" x2="173.041" y2="45.5952" gradientUnits="userSpaceOnUse">
<stop stop-color="#5149F2"/>
<stop offset="1" stop-color="#F7F7FF"/>
</linearGradient>
<linearGradient id="paint12_linear_151_1638" x1="55.5416" y1="132.485" x2="33.573" y2="90.5553" gradientUnits="userSpaceOnUse">
<stop stop-color="#4D97F9"/>
<stop offset="1" stop-color="#F7F7FF"/>
</linearGradient>
<linearGradient id="paint13_linear_151_1638" x1="131.523" y1="33.5719" x2="177.508" y2="46.5633" gradientUnits="userSpaceOnUse">
<stop stop-color="#4D97F9"/>
<stop offset="1" stop-color="#F7F7FF"/>
</linearGradient>
<linearGradient id="paint14_linear_151_1638" x1="131.523" y1="66.94" x2="177.508" y2="79.9315" gradientUnits="userSpaceOnUse">
<stop stop-color="#4D97F9"/>
<stop offset="1" stop-color="#F7F7FF"/>
</linearGradient>
<linearGradient id="paint15_linear_151_1638" x1="201.064" y1="24.4019" x2="179.095" y2="-17.5277" gradientUnits="userSpaceOnUse">
<stop stop-color="#4D97F9"/>
<stop offset="1" stop-color="#F7F7FF"/>
</linearGradient>
<linearGradient id="paint16_linear_151_1638" x1="46.7613" y1="84.5284" x2="40.3538" y2="72.2989" gradientUnits="userSpaceOnUse">
<stop stop-color="#4D97F9"/>
<stop offset="1" stop-color="#F7F7FF"/>
</linearGradient>
<linearGradient id="paint17_linear_151_1638" x1="212.931" y1="177.917" x2="206.524" y2="165.687" gradientUnits="userSpaceOnUse">
<stop stop-color="#4D97F9"/>
<stop offset="1" stop-color="#F7F7FF"/>
</linearGradient>
<linearGradient id="paint18_linear_151_1638" x1="215.678" y1="111.016" x2="196.907" y2="104.903" gradientUnits="userSpaceOnUse">
<stop stop-color="#4D97F9"/>
<stop offset="1" stop-color="#F7F7FF"/>
</linearGradient>
<linearGradient id="paint19_linear_151_1638" x1="72.5847" y1="190.561" x2="78.6997" y2="171.813" gradientUnits="userSpaceOnUse">
<stop stop-color="#4D97F9"/>
<stop offset="1" stop-color="#F7F7FF"/>
</linearGradient>
<linearGradient id="paint20_linear_151_1638" x1="168.302" y1="33.3054" x2="200.003" y2="96.1153" gradientUnits="userSpaceOnUse">
<stop stop-color="#FFECB3"/>
<stop offset="1" stop-color="#FFC107"/>
</linearGradient>
<linearGradient id="paint21_linear_151_1638" x1="106.01" y1="7.73782" x2="99.6022" y2="-4.49165" gradientUnits="userSpaceOnUse">
<stop stop-color="#4D97F9"/>
<stop offset="1" stop-color="#F7F7FF"/>
</linearGradient>
<linearGradient id="paint22_linear_151_1638" x1="113.685" y1="141.131" x2="89.1174" y2="116.619" gradientUnits="userSpaceOnUse">
<stop stop-color="#4D97F9"/>
<stop offset="1" stop-color="#F7F7FF"/>
</linearGradient>
<linearGradient id="paint23_linear_151_1638" x1="113.696" y1="170.407" x2="109.527" y2="148.302" gradientUnits="userSpaceOnUse">
<stop stop-color="#4D97F9"/>
<stop offset="1" stop-color="#F7F7FF"/>
</linearGradient>
</defs>
</svg>
